<?xml version="1.0" encoding="utf-8"?>
<!-- Generator: Adobe Illustrator 22.1.0, SVG Export Plug-In . SVG Version: 6.00 Build 0)  -->
<svg version="1.1" id="Layer_1" xmlns="http://www.w3.org/2000/svg" xmlns:xlink="http://www.w3.org/1999/xlink" x="0px" y="0px"
	 viewBox="0 0 480 240" style="enable-background:new 0 0 480 240;" xml:space="preserve">
<style type="text/css">
	.st0{fill-rule:evenodd;clip-rule:evenodd;fill:#E41E2B;}
</style>
<path class="st0" d="M86.9,63.8c3.2,0,4.8,19.4,4.8,43.4c0,24-1.4,43.4-4.8,43.4c-3.3,0-4.8-19.4-4.8-43.4
	C82.1,83.3,83.7,63.8,86.9,63.8z M242.3,135.4v38.1H223v-35.9C229.4,137,235.8,136.3,242.3,135.4z M271.1,130.5v42.9h-19.3V134
	C258.1,133,264.5,131.8,271.1,130.5z M405.8,109.8V124c1.5,41.5,15.3,56.3,36,47.5v-19.6c-6.4,5.9-13.5,2.5-15.1-11.6
	c-1-10.6-1.6-21.2-1.7-31.8C418.9,108.8,412.3,109.2,405.8,109.8z M441.8,41.3c-23.8-6.6-35.2,16.1-36,49v11.2
	c6.5-1.5,13-3,19.2-4.5c0.2-8.1,0.8-16.1,1.7-24.2c2.4-11.9,8.8-15.6,15-11.1V41.3z M397,110.6c-4.2,0.3-16,2-19.3,3.5v59.3H397
	V110.6z M204.8,138.7v10.1c0.1,4.9,3.6,8.4,9.3,5l-0.1,16.9c-11.6,9-28.2,0.9-28.5-16V139C191.9,139.1,198.3,139,204.8,138.7z
	 M147.6,102.9V41h19.3v68.6C160.5,107.7,154,105.5,147.6,102.9z M119.2,89.6V41h19.3v58.1C132.1,96.3,125.6,93.1,119.2,89.6z
	 M349.3,116V66c-0.2-4.5-0.5-8.7-4.3-11.7l12.3-14.1c5.1,2.2,8.1,4.9,9.7,9.6c7.7-14.5,31.4-13.4,29.9,13.1v40.6
	c-6.5,1.5-13,3.1-19.3,4.9V69.9c0.1-6.5-0.5-8.7-2.7-9.7c-1.5-0.7-3.6-0.2-6.3,3.2c0,0.8,0,1.7,0,2.6V111c-2,0.4-3.7,0.7-4.1,0.6
	c-0.3,0-2.4,0.2-2.7,0.1c-0.9-0.1-7.3,0.8-9.3,1.8c-2.2,0.6-2.9,1.7-1.7,1.4c1.9-0.4,5.6-1.5,5.5-0.6
	C355.8,114.5,352.2,115,349.3,116z M349.3,118.9v-0.4c3.4-0.8,8.9-2,7.2-1C353.6,118,351.7,118.3,349.3,118.9z M368.7,173.4h-19.3
	v-51.6c0.2-0.1,0.4-0.1,0.6-0.1c4.3-0.7,9.6-0.1,11.6-1.2c1.4,1.9-6.5,6.1-4.1,9.2c1,0.6,1.6-1.4,2.4-1.9c1.8-1.3,3.9-1.6,4.9-3.2
	c1.4-2,2.6-3.8,3.9-5.2L368.7,173.4L368.7,173.4z M458.5,149.4c6.8,0,12.4,5.6,12.4,12.6c0,7-5.5,12.6-12.4,12.6
	c-6.8,0-12.4-5.6-12.4-12.6C446.2,155,451.7,149.4,458.5,149.4z M166.9,148.5c0.2,4.5,0.5,8.7,4.2,11.7l-12.3,14.1
	c-5.1-2.2-8.1-4.9-9.7-9.6c-7.7,14.5-31.4,13.4-29.9-13.2v-20c6.4,1.4,12.8,2.6,19.3,3.6v9.4c-0.1,6.5,0.5,8.7,2.7,9.7
	c1.5,0.7,3.6,0.2,6.3-3.2c0-0.8,0-1.7,0-2.6v-12.1c6.4,0.8,12.8,1.4,19.3,1.9L166.9,148.5L166.9,148.5z M199.1,20.1h5.7v21.1h9.4
	v17.1h-9.4v59.9c-6.4-1-12.9-2.2-19.3-3.7V58.3h-10.1v-5.9C184,42.8,192,32,199.1,20.1z M223,4.9h19.3v42.9
	c8.5-12.9,30.2-10.4,28.8,15.3v59.3c-6.3,0.1-12.8,0.1-19.3,0V69.9c0.1-6.5-0.5-8.7-2.7-9.7c-1.5-0.7-3.8-0.1-6.7,3.7v58
	c-6.4-0.3-12.8-0.7-19.3-1.4L223,4.9L223,4.9z M86.9,40.3c-16.5,0-24.6,30-24.6,67c0,37,7.4,66.9,24.6,66.9
	c17.2,0,24.6-30,24.6-66.9C111.5,70.3,103.4,40.3,86.9,40.3z M315.6,117.7c12.4-4.9,12.7-1.5,18.6-1.7c0.7,2.9-4.8,1.7-6.5,2
	c2,4.1,5.2,6.7,8.7,9.8c0.4,0.4,1,0.8,1.5,1.3V4.9h-22.3L315.6,117.7L315.6,117.7z M337.9,173.4h-22.3v-47.1l0.1,0
	c3.7-0.4,3.8,3.6,7.6,4.2c0.7,0.1,2.6,0.2,3.4,0.3c0.3,0-2-1.1-1.5-1.3c0.7,0.3,2.3,1.4,2.6,1.5c1,0.6,2.9,0.4,3,0.2
	c-0.7-0.5-1.7-1.4-2.5-2.1c-0.8-0.7-1.6-1.3-1.3-1.4c0.2-0.1,1.5,1.1,2.9,2c1.1,0.8,2.5,1.8,2.7,1.8c1.1,0.8,3,0.2,2.6-0.2
	c-0.7-0.8-6.7-5.5-6-5.6c0.2-0.2,1.3,0.9,2.5,1.9c2,1.6,4.5,3.5,4.6,3.5c0.6,0.4,1.1,0.6,1.6,0.8L337.9,173.4L337.9,173.4z M6.2,1.8
	H29L37,45l7.6-43.2h23L47.9,91.3v81.8H25.4V91.8L6.2,1.8z M20.7,237.6v-20.2h15v3.4H24.8v4.5h10.1v3.4H24.8v5.5h11.3v3.4L20.7,237.6
	L20.7,237.6z M39.2,237.6v-20.2h4l8.3,13.5v-13.5h3.8v20.2h-4.1L43,224.4v13.2H39.2z M63.8,237.6v-16.8h-6v-3.4h16v3.4h-6v16.8H63.8
	z M76.1,237.6v-20.2h8.6c2.2,0,3.7,0.2,4.7,0.5c1,0.4,1.8,1,2.3,1.9c0.6,0.9,0.9,2,0.9,3.2c0,1.5-0.4,2.8-1.3,3.8
	c-0.9,1-2.2,1.6-4,1.9c0.9,0.5,1.6,1.1,2.2,1.7c0.6,0.6,1.3,1.7,2.3,3.3l2.5,3.9h-4.9l-2.9-4.4c-1-1.6-1.8-2.6-2.2-3
	c-0.4-0.4-0.8-0.7-1.2-0.8c-0.4-0.1-1.1-0.2-2.1-0.2h-0.8v8.4L76.1,237.6L76.1,237.6z M80.2,225.9h3c2,0,3.2-0.1,3.7-0.2
	c0.5-0.2,0.9-0.4,1.1-0.9c0.3-0.4,0.4-0.9,0.4-1.5c0-0.7-0.2-1.2-0.6-1.6c-0.4-0.4-0.9-0.7-1.5-0.8c-0.3-0.1-1.3-0.1-3-0.1h-3.2
	L80.2,225.9L80.2,225.9z M96.2,237.6v-20.2h15v3.4h-10.9v4.5h10.1v3.4h-10.1v5.5h11.3v3.4L96.2,237.6L96.2,237.6z M114.6,237.6
	v-20.2h6.5c2.5,0,4.1,0.1,4.9,0.3c1.2,0.3,2.1,1,2.9,2c0.8,1,1.2,2.3,1.2,3.9c0,1.2-0.2,2.3-0.7,3.1c-0.5,0.8-1,1.5-1.7,2
	c-0.7,0.5-1.4,0.8-2.1,1c-1,0.2-2.4,0.3-4.2,0.3h-2.7v7.6L114.6,237.6L114.6,237.6z M118.7,220.8v5.7h2.2c1.6,0,2.7-0.1,3.2-0.3
	c0.5-0.2,1-0.5,1.3-1c0.3-0.5,0.5-1,0.5-1.6c0-0.7-0.2-1.3-0.6-1.8c-0.4-0.5-1-0.8-1.6-0.9c-0.5-0.1-1.5-0.1-2.9-0.1H118.7z
	 M133.1,237.6v-20.2h8.6c2.2,0,3.7,0.2,4.7,0.5c1,0.4,1.8,1,2.3,1.9c0.6,0.9,0.9,2,0.9,3.2c0,1.5-0.4,2.8-1.3,3.8
	c-0.9,1-2.2,1.6-4,1.9c0.9,0.5,1.6,1.1,2.2,1.7c0.6,0.6,1.3,1.7,2.3,3.3l2.5,3.9h-4.9l-2.9-4.4c-1-1.6-1.8-2.6-2.2-3
	c-0.4-0.4-0.8-0.7-1.2-0.8c-0.4-0.1-1.1-0.2-2-0.2h-0.8v8.4L133.1,237.6L133.1,237.6z M137.2,225.9h3c2,0,3.2-0.1,3.7-0.2
	c0.5-0.2,0.9-0.4,1.1-0.9c0.3-0.4,0.4-0.9,0.4-1.5c0-0.7-0.2-1.2-0.5-1.6c-0.4-0.4-0.9-0.7-1.5-0.8c-0.3-0.1-1.3-0.1-3-0.1h-3.2
	V225.9z M153.1,237.6v-20.2h15v3.4h-10.9v4.5h10.1v3.4h-10.1v5.5h11.3v3.4L153.1,237.6L153.1,237.6z M171.7,237.6v-20.2h4l8.3,13.5
	v-13.5h3.8v20.2h-4.1l-8.1-13.2v13.2H171.7z M191.7,237.6v-20.2h15v3.4h-10.9v4.5h10.1v3.4h-10.1v5.5H207v3.4L191.7,237.6
	L191.7,237.6z M210.1,217.4h4.1v10.9c0,1.7,0,2.9,0.2,3.4c0.2,0.8,0.6,1.5,1.2,2c0.7,0.5,1.6,0.8,2.7,0.8c1.2,0,2-0.2,2.6-0.7
	c0.6-0.5,0.9-1,1.1-1.7c0.1-0.7,0.2-1.8,0.2-3.4v-11.2h4.1V228c0,2.4-0.1,4.1-0.3,5.1c-0.2,1-0.6,1.8-1.2,2.5
	c-0.6,0.7-1.4,1.2-2.4,1.6c-1,0.4-2.3,0.6-3.9,0.6c-1.9,0-3.4-0.2-4.4-0.7c-1-0.4-1.8-1-2.4-1.7c-0.6-0.7-1-1.5-1.1-2.2
	c-0.3-1.2-0.4-2.9-0.4-5.1V217.4z M230.2,237.6v-20.2h8.6c2.2,0,3.7,0.2,4.7,0.5c1,0.4,1.8,1,2.3,1.9c0.6,0.9,0.9,2,0.9,3.2
	c0,1.5-0.4,2.8-1.3,3.8c-0.9,1-2.2,1.6-4,1.9c0.9,0.5,1.6,1.1,2.2,1.7c0.6,0.6,1.3,1.7,2.3,3.3l2.5,3.9h-4.9l-2.9-4.4
	c-1-1.6-1.8-2.6-2.1-3c-0.4-0.4-0.8-0.7-1.2-0.8c-0.4-0.1-1.1-0.2-2-0.2h-0.8v8.4L230.2,237.6L230.2,237.6z M234.3,225.9h3
	c2,0,3.2-0.1,3.7-0.2c0.5-0.2,0.9-0.4,1.1-0.9c0.3-0.4,0.4-0.9,0.4-1.5c0-0.7-0.2-1.2-0.5-1.6c-0.4-0.4-0.9-0.7-1.5-0.8
	c-0.3-0.1-1.3-0.1-3-0.1h-3.2L234.3,225.9L234.3,225.9z M249.2,231l4-0.4c0.2,1.3,0.7,2.3,1.4,2.9c0.7,0.6,1.7,0.9,3,0.9
	c1.3,0,2.3-0.3,3-0.8c0.7-0.6,1-1.2,1-1.9c0-0.5-0.1-0.9-0.4-1.2c-0.3-0.3-0.8-0.6-1.5-0.9c-0.5-0.2-1.6-0.5-3.3-0.9
	c-2.2-0.5-3.7-1.2-4.6-2c-1.2-1.1-1.9-2.5-1.9-4.1c0-1,0.3-2,0.9-2.9c0.6-0.9,1.4-1.6,2.5-2c1.1-0.5,2.4-0.7,4-0.7
	c2.5,0,4.4,0.6,5.7,1.7c1.3,1.1,2,2.6,2,4.4l-4.1,0.2c-0.2-1-0.5-1.8-1.1-2.2c-0.6-0.5-1.4-0.7-2.6-0.7c-1.2,0-2.1,0.2-2.8,0.7
	c-0.4,0.3-0.6,0.7-0.6,1.3c0,0.5,0.2,0.9,0.6,1.2c0.5,0.4,1.8,0.9,3.7,1.3c2,0.5,3.4,1,4.4,1.4c1,0.5,1.7,1.2,2.2,2.1
	c0.5,0.9,0.8,1.9,0.8,3.2c0,1.2-0.3,2.2-1,3.3c-0.6,1-1.6,1.8-2.7,2.2c-1.2,0.5-2.6,0.7-4.4,0.7c-2.5,0-4.5-0.6-5.9-1.8
	C250.2,235,249.4,233.3,249.2,231z M268.7,237.6v-20.2h4.1v7.9h8v-7.9h4.1v20.2h-4.1v-8.8h-8v8.8H268.7z M288.6,217.4h4.1v20.2h-4.1
	V217.4z M296.2,237.6v-20.2h6.5c2.5,0,4.1,0.1,4.9,0.3c1.2,0.3,2.1,1,2.9,2c0.8,1,1.2,2.3,1.2,3.9c0,1.2-0.2,2.3-0.7,3.1
	c-0.4,0.8-1,1.5-1.7,2c-0.7,0.5-1.4,0.8-2.1,1c-1,0.2-2.4,0.3-4.2,0.3h-2.7v7.6L296.2,237.6L296.2,237.6z M300.3,220.8v5.7h2.2
	c1.6,0,2.7-0.1,3.2-0.3c0.5-0.2,1-0.5,1.3-1c0.3-0.5,0.5-1,0.5-1.6c0-0.7-0.2-1.3-0.7-1.8c-0.4-0.5-1-0.8-1.6-0.9
	c-0.5-0.1-1.5-0.1-2.9-0.1H300.3z M321.7,237.6v-20.2h6.5c2.5,0,4.1,0.1,4.8,0.3c1.2,0.3,2.1,1,2.9,2c0.8,1,1.2,2.3,1.2,3.9
	c0,1.2-0.2,2.3-0.7,3.1c-0.5,0.8-1,1.5-1.7,2c-0.7,0.5-1.4,0.8-2.1,1c-1,0.2-2.4,0.3-4.2,0.3h-2.6v7.6L321.7,237.6L321.7,237.6z
	 M325.8,220.8v5.7h2.2c1.6,0,2.7-0.1,3.2-0.3c0.5-0.2,1-0.5,1.3-1c0.3-0.5,0.5-1,0.5-1.6c0-0.7-0.2-1.3-0.6-1.8
	c-0.4-0.5-1-0.8-1.6-0.9c-0.5-0.1-1.5-0.1-2.9-0.1H325.8z M340.2,237.6v-20.2h8.6c2.2,0,3.7,0.2,4.7,0.5c1,0.4,1.8,1,2.3,1.9
	c0.6,0.9,0.9,2,0.9,3.2c0,1.5-0.4,2.8-1.3,3.8c-0.9,1-2.2,1.6-4,1.9c0.9,0.5,1.6,1.1,2.2,1.7c0.6,0.6,1.3,1.7,2.3,3.3l2.5,3.9h-4.9
	l-2.9-4.4c-1-1.6-1.8-2.6-2.2-3c-0.4-0.4-0.8-0.7-1.2-0.8c-0.4-0.1-1.1-0.2-2-0.2h-0.8v8.4L340.2,237.6L340.2,237.6z M344.2,225.9h3
	c1.9,0,3.2-0.1,3.7-0.2c0.5-0.2,0.9-0.4,1.1-0.9c0.3-0.4,0.4-0.9,0.4-1.5c0-0.7-0.2-1.2-0.5-1.6c-0.4-0.4-0.9-0.7-1.5-0.8
	c-0.3-0.1-1.3-0.1-3-0.1h-3.2V225.9z M359.4,227.6c0-2.1,0.3-3.8,0.9-5.2c0.5-1,1.1-1.9,1.9-2.8c0.8-0.8,1.7-1.4,2.6-1.8
	c1.3-0.5,2.7-0.8,4.4-0.8c3,0,5.3,0.9,7.1,2.8c1.8,1.8,2.7,4.4,2.7,7.7c0,3.3-0.9,5.8-2.7,7.7c-1.8,1.8-4.1,2.8-7.1,2.8
	c-3,0-5.4-0.9-7.2-2.7C360.2,233.3,359.4,230.8,359.4,227.6z M363.6,227.5c0,2.3,0.5,4,1.6,5.2c1.1,1.2,2.4,1.8,4,1.8s3-0.6,4-1.8
	c1-1.2,1.6-2.9,1.6-5.3c0-2.3-0.5-4-1.5-5.2c-1-1.1-2.4-1.7-4-1.7s-3,0.6-4.1,1.7C364.1,223.4,363.6,225.1,363.6,227.5z
	 M391.2,230.2v-3.4h8.8v8c-0.9,0.8-2.1,1.6-3.7,2.2c-1.6,0.6-3.3,0.9-4.9,0.9c-2.1,0-4-0.4-5.5-1.3c-1.6-0.9-2.7-2.2-3.5-3.8
	c-0.8-1.7-1.2-3.4-1.2-5.4c0-2.1,0.4-4,1.3-5.6c0.9-1.6,2.2-2.9,3.9-3.8c1.3-0.7,2.9-1,4.8-1c2.5,0,4.5,0.5,5.9,1.6
	c1.4,1,2.3,2.5,2.7,4.4l-4,0.8c-0.3-1-0.8-1.8-1.6-2.3c-0.8-0.6-1.8-0.9-2.9-0.9c-1.8,0-3.2,0.6-4.2,1.7c-1,1.1-1.6,2.8-1.6,5
	c0,2.4,0.5,4.2,1.6,5.4c1.1,1.2,2.5,1.8,4.2,1.8c0.8,0,1.7-0.2,2.6-0.5c0.9-0.3,1.6-0.7,2.2-1.2v-2.6L391.2,230.2L391.2,230.2z
	 M407.5,225.9h3c2,0,3.2-0.1,3.7-0.2c0.5-0.2,0.9-0.4,1.1-0.9c0.3-0.4,0.4-0.9,0.4-1.5c0-0.7-0.2-1.2-0.5-1.6
	c-0.4-0.4-0.9-0.7-1.5-0.8c-0.3-0.1-1.3-0.1-3-0.1h-3.2V225.9z M441.6,237.6h-4.4l-1.8-4.6h-8.1l-1.7,4.6h-4.3h-4.7l-2.9-4.4
	c-1-1.6-1.8-2.6-2.2-3c-0.4-0.4-0.8-0.7-1.2-0.8c-0.4-0.1-1.1-0.2-2.1-0.2h-0.8v8.4h-4.1v-20.2h8.6c2.2,0,3.7,0.2,4.7,0.5
	c1,0.4,1.8,1,2.3,1.9c0.6,0.9,0.9,2,0.9,3.2c0,1.5-0.4,2.8-1.3,3.8c-0.9,1-2.2,1.6-4,1.9c0.9,0.5,1.6,1.1,2.2,1.7
	c0.6,0.6,1.3,1.7,2.3,3.3l2.4,3.8l7.8-20h4.3L441.6,237.6z M434.1,229.6l-2.8-7.5l-2.7,7.5H434.1z M443.4,237.6v-20.2h6.1l3.7,13.8
	l3.6-13.8h6.1v20.2h-3.8v-15.9l-4,15.9h-3.9l-4-15.9v15.9H443.4z M6.6,188.3h467.8v7.5H6.6V188.3z"/>
</svg>
